<svg xmlns="http://www.w3.org/2000/svg" viewBox="0 0 582.97 582.97">
  <defs>
    <style>
      .cls-1 {
        fill: none;
        stroke: #05ffd8;
        stroke-miterlimit: 10;
        stroke-width: 20px;
      }
      .color {
        fill: #fff;
      }
    </style>
  </defs>
  <g id="Layer_2" data-name="Layer 2">
    <g id="page_1" data-name="page 1">
      <path id="classR" class="color" d="M384.8,216.27a102.86,102.86,0,0,1,20.22,2,50.69,50.69,0,0,1,17.46,6.82A35.57,35.57,0,0,1,434.61,238q4.51,8.1,4.51,20.34a45.36,45.36,0,0,1-2.78,15.84,47.49,47.49,0,0,1-7.62,13.52,41.3,41.3,0,0,1-26.82,15v.47a21.59,21.59,0,0,1,8.9,5.08,24.14,24.14,0,0,1,5.55,8.21A36.72,36.72,0,0,1,418.89,327a57.09,57.09,0,0,1-.11,12c-.31,3.69-.78,7.36-1.39,11s-1.08,7.25-1.39,10.87a59.6,59.6,0,0,0,0,10.52,26.32,26.32,0,0,0,3,9.93H396.12q-1.62-4.62-1.84-13.63A99.68,99.68,0,0,1,396.59,346q1.85-11.1,1-17.91t-3.35-10.52a13.25,13.25,0,0,0-6.25-5.09,25.83,25.83,0,0,0-7.39-1.62H323.08l-14.79,70.5h-22l34.9-165Zm-8.32,76q12.94,0,20.92-3.46a34.81,34.81,0,0,0,12.36-8.44,26.23,26.23,0,0,0,5.9-10.63,39.88,39.88,0,0,0,1.5-10.06q0-7.64-2.77-12.48a21,21,0,0,0-7.29-7.63,29.21,29.21,0,0,0-10.28-3.81,67.21,67.21,0,0,0-12-1H339.26L327,292.32Z"/>
      <path id="classV" class="color" d="M185.32,381.31l-23.58-165h22.42L201,359.82h.46l78.36-143.55h23.35l-93.16,165Z"/>
      <g id="circleSmall">
        <path id="circleSmallBottom" class="cls-1" d="M291.39,496.05c-113,0-204.59-91.6-204.59-204.6"/>
        <path id="circleSmallTop" class="cls-1" d="M291.39,86.86c113,0,204.6,91.6,204.6,204.59"/>
      </g>
      <g id="circleBig">
        <path id="circleBigBottom" class="cls-1" d="M291.48,573C136,573,10,446.94,10,291.48"/>
        <path id="circleBigTop" class="cls-1" d="M291.48,10C446.94,10,573,136,573,291.48"/>
      </g>
    </g>
  </g>
</svg>
